<svg id="visual" viewBox="0 0 1920 1080" width="1920" height="1080" xmlns="http://www.w3.org/2000/svg" xmlns:xlink="http://www.w3.org/1999/xlink" version="1.1"><rect x="0" y="0" width="1920" height="1080" fill="#2e4756"></rect><path d="M0 206L64 207.8C128 209.7 256 213.3 384 212C512 210.7 640 204.3 768 203C896 201.7 1024 205.3 1152 213.2C1280 221 1408 233 1536 228.7C1664 224.3 1792 203.7 1856 193.3L1920 183L1920 0L1856 0C1792 0 1664 0 1536 0C1408 0 1280 0 1152 0C1024 0 896 0 768 0C640 0 512 0 384 0C256 0 128 0 64 0L0 0Z" fill="#16262e"></path></svg>